<?xml version="1.0"?>
<svg xmlns="http://www.w3.org/2000/svg" xmlns:xlink="http://www.w3.org/1999/xlink" xmlns:svgjs="http://svgjs.com/svgjs" version="1.1" width="512" height="512" x="0" y="0" viewBox="0 0 64 64" style="enable-background:new 0 0 512 512" xml:space="preserve" class=""><g><g xmlns="http://www.w3.org/2000/svg"><path d="m38.646 31.161c.135-.644.255-1.316.346-2.043.513-4.103-.684-7.909-2.062-10.757 2.046-5.12 2.07-11.115 2.07-11.368v-.867l-7.612-1.088-.506-4.045h-.882c-10.218 0-25 5.697-25 16 0 8.485 3.471 12.24 4.895 13.422-.299 1.752-.18 3.421.094 4.627-.132 1.208-.989 9.438-.989 17.951 0 9.886 7.92 10 8 10h2 1 10 1 17c2.767 0 8-1.672 8-8l.005-1.045c.048-7.115.107-16.842-17.359-22.787zm-31.646-14.168c0-8.998 13.741-13.67 22.119-13.983l.889 7.107 1.984-.248-.347-2.773 5.328.761c-.072 1.542-.342 4.909-1.336 8.145-.969-1.574-1.788-2.552-1.879-2.658l-1.519 1.301c.057.066 5.699 6.773 4.768 14.226-.84 6.718-3.87 10.124-9.008 10.124-4.181 0-8.488-3.109-9.247-3.683l-1.762-11.46c-.009-.061-.788-6.128 2.252-6.889 3.169-.791 4.797 2.347 4.863 2.478l1.789-.895c-.816-1.632-3.367-4.467-7.137-3.522-4.008 1.001-3.974 6.402-3.822 8.383-2.318 1.188-3.693 2.955-4.439 4.83-1.33-1.429-3.496-4.748-3.496-11.244zm30.855 25.398-5.272-2.343c1.296-.596 2.532-1.52 3.58-2.925 1.043 1.933 1.501 3.928 1.692 5.268zm-6.855-.859v4.462h-2v-4.277l1.057-.604zm-4.556-.659-2.444 1.397v-1.959c.785.252 1.606.446 2.444.562zm-9.67-5.27-4.91-1.403c-.256-1.587-.609-6.206 3.359-8.68zm2.297 25.39h-2.071c-.245 0-6-.091-6-8 0-7.104.605-14.021.871-16.711l5.274 1.507 3.835 18.217c-1.327 1.686-1.767 3.772-1.909 4.987zm9.929 0h-7.915c.176-1.26.712-3.407 2.349-4.625 1.331-.99 3.205-1.194 5.566-.612zm25.005-7.058-.005 1.058c0 5.795-5.389 5.996-6 6h-17v-5.24l17.268-4.797-.535-1.928-2.051.57-2.712-10.847-1.939.484 2.725 10.899-13.766 3.824c-2.958-.829-5.405-.657-7.288.511l-3.453-16.403c.751.466 1.689.99 2.752 1.47v6.181l5-2.858v5.134h6v-5.573l7 3.112v-1.539c0-.205-.033-4.776-2.661-8.826.299-.62.561-1.318.798-2.067 15.962 5.483 15.914 13.987 15.867 20.835z" fill="#ffffff" data-original="#000000" style="" class=""/><path d="m31.899 32.341c-.098.146-.297.188-.442.089l-1.003-.668c-.917-.612-2.148-.49-2.926.29l-2.235 2.234 1.414 1.414 2.236-2.235c.105-.106.275-.124.401-.039l1.003.668c.517.344 1.134.465 1.741.345.607-.122 1.131-.473 1.475-.988l1.269-1.902-1.664-1.109z" fill="#ffffff" data-original="#000000" style="" class=""/><path d="m50.422 30.601-1.869-3.738-5.749 1.15.392 1.961 4.251-.85 2.131 4.262 7.918-4.525-.992-1.736z" fill="#ffffff" data-original="#000000" style="" class=""/><path d="m48.726 17.305-3.621 7.241 1.79.894 2.379-4.758 2.664 2.664 6.703-5.584-1.282-1.537-5.297 4.416z" fill="#ffffff" data-original="#000000" style="" class=""/><path d="m48.438 9.845 2.884 2.884 4.592-10.33-1.828-.812-3.408 7.67-3.115-3.115-4.147 12.441-2.969-1.484-.894 1.789 5.031 2.515z" fill="#ffffff" data-original="#000000" style="" class=""/><path d="m20.447 23.099-.894 1.789 2.987 1.493-1.372 2.057 1.664 1.11 2.628-3.943z" fill="#ffffff" data-original="#000000" style="" class=""/><path d="m29.806 23.649 3.878 1.292.632-1.896-2.122-.708.776-3.102-1.94-.484z" fill="#ffffff" data-original="#000000" style="" class=""/><path d="m28.168 17.548 1.664-1.109c-2.189-3.284-6.411-4.371-6.59-4.415l-.486 1.939c.036.009 3.658.954 5.412 3.585z" fill="#ffffff" data-original="#000000" style="" class=""/><path d="m31.707 13.286c-2.143-2.143-5.259-3.198-5.391-3.241l-.633 1.896c.028.01 2.797.946 4.609 2.759z" fill="#ffffff" data-original="#000000" style="" class=""/></g></g></svg>
