<svg width="750" height="500" viewBox="0 0 750 500" fill="none" xmlns="http://www.w3.org/2000/svg">
<path opacity="0.7" d="M556.42 32.1071C556.42 32.1071 473.78 2.72712 392.66 49.5071C311.54 96.2871 270.66 189.167 235.46 263.557C200.26 337.947 220.54 413.617 282.46 448.127C344.38 482.637 386.46 431.767 473.37 429.287C560.28 426.807 583.6 439.227 655.69 390.157C727.78 341.087 740.8 225.157 683.94 139.427C627.08 53.6971 556.42 32.1071 556.42 32.1071Z" fill="white"/>
<path d="M324.14 218.797C327.43 218.017 333.39 213.327 333.4 213.327C333.41 213.327 329.11 210.327 328.82 210.177C325.4 208.397 317.74 206.967 314.67 209.997C314.173 210.514 313.79 211.13 313.547 211.805C313.304 212.48 313.207 213.199 313.26 213.915C313.314 214.63 313.518 215.326 313.859 215.957C314.201 216.588 314.671 217.14 315.24 217.577C317.59 219.527 321.34 219.457 324.14 218.797Z" fill="#7FD1AE"/>
<path d="M339.43 234.777C342.28 233.217 346.51 227.587 346.84 227.137C350.054 229.565 353.429 231.773 356.94 233.747C358.94 234.917 361.07 236.027 363.18 237.107C362.18 236.757 361.18 236.447 361.08 236.417C357.31 235.607 349.55 236.247 347.38 239.977C347.037 240.608 346.83 241.304 346.774 242.02C346.718 242.735 346.814 243.455 347.054 244.131C347.295 244.808 347.675 245.426 348.171 245.946C348.666 246.465 349.266 246.875 349.93 247.147C352.71 248.397 356.32 247.347 358.85 245.967C361.38 244.587 365.11 239.837 366.08 238.567L368.51 239.797C372.42 241.737 376.33 243.657 380.11 245.657C381.44 246.367 382.72 247.107 384.01 247.847C383.09 247.537 382.31 247.277 382.19 247.257C378.42 246.437 370.66 247.077 368.5 250.817C368.157 251.447 367.951 252.142 367.895 252.857C367.839 253.572 367.934 254.291 368.175 254.967C368.415 255.643 368.796 256.26 369.291 256.779C369.787 257.297 370.386 257.706 371.05 257.977C373.83 259.237 377.43 258.177 379.96 256.797C382.49 255.417 385.86 251.127 387.02 249.627C388.31 250.427 389.61 251.217 390.83 252.057C391.65 252.637 392.49 253.147 393.28 253.777L395.64 255.597C397.11 256.807 398.64 258.047 400.02 259.257C401.02 260.097 401.91 260.917 402.84 261.737C401.52 261.017 398.91 259.667 398.68 259.577C395.08 258.197 387.31 257.657 384.61 261.027C384.176 261.598 383.867 262.254 383.703 262.953C383.539 263.651 383.524 264.376 383.659 265.081C383.793 265.786 384.075 266.454 384.486 267.043C384.896 267.631 385.425 268.127 386.04 268.497C388.6 270.157 392.32 269.657 395.04 268.677C398.04 267.597 402.88 262.887 403.48 262.287C405.01 263.657 406.48 264.987 407.85 266.287C411.54 269.737 414.64 272.837 417.07 275.347L419.37 273.627C416.82 271.097 413.53 267.927 409.58 264.397C408.04 263.007 406.36 261.557 404.58 260.077C405.709 258.219 406.728 256.296 407.63 254.317C410.84 254.897 417.05 253.737 417.85 253.577C418.37 255.577 418.85 257.487 419.29 259.317C420.43 264.087 421.29 268.317 421.93 271.667L424.43 269.787C423.74 266.637 422.88 262.887 421.78 258.697C421.25 256.697 420.66 254.547 420.02 252.357C420.77 252.007 426.9 249.087 428.96 246.667C430.82 244.477 432.59 241.157 431.96 238.187C431.834 237.477 431.559 236.802 431.153 236.207C430.748 235.611 430.221 235.107 429.607 234.729C428.993 234.352 428.306 234.108 427.592 234.015C426.877 233.921 426.15 233.98 425.46 234.187C421.37 235.547 419.16 243.017 419.2 246.877C419.2 247.107 419.5 249.567 419.71 251.127C419.44 250.227 419.2 249.357 418.92 248.447C418.37 246.627 417.77 244.827 417.13 242.897C416.79 241.967 416.44 241.037 416.13 240.097C415.82 239.157 415.34 238.197 414.94 237.247C413.94 235.037 412.94 232.857 411.77 230.677C413.36 230.197 418.98 228.397 421.16 226.497C423.34 224.597 425.59 221.597 425.38 218.557C425.358 217.84 425.184 217.136 424.871 216.49C424.558 215.845 424.112 215.272 423.563 214.811C423.014 214.349 422.373 214.009 421.684 213.812C420.994 213.615 420.27 213.565 419.56 213.667C415.3 214.387 411.99 221.447 411.44 225.257C411.44 225.497 411.32 228.257 411.3 229.807C410.61 228.507 409.92 227.197 409.18 225.907C407.03 222.167 404.74 218.437 402.47 214.717L400.41 211.287C400.98 211.127 407.7 209.137 410.15 207.007C412.33 205.127 414.58 202.117 414.37 199.067C414.346 198.351 414.172 197.647 413.858 197.002C413.545 196.358 413.099 195.786 412.55 195.325C412.001 194.864 411.361 194.523 410.672 194.325C409.983 194.128 409.26 194.077 408.55 194.177C404.29 194.907 400.98 201.957 400.43 205.767C400.43 206.057 400.27 210.067 400.29 211.087C398.78 208.567 397.29 206.087 395.95 203.497C394.101 200.07 392.477 196.526 391.09 192.887C391.35 192.807 398.38 190.757 400.89 188.587C403.06 186.697 405.31 183.687 405.11 180.647C405.085 179.93 404.909 179.226 404.594 178.582C404.28 177.937 403.833 177.365 403.283 176.904C402.734 176.443 402.093 176.103 401.404 175.905C400.714 175.708 399.99 175.657 399.28 175.757C395.02 176.477 391.71 183.527 391.16 187.347C391.16 187.647 390.99 191.957 391.03 192.737C390.95 192.527 390.84 192.317 390.76 192.097C389.47 188.409 388.51 184.614 387.89 180.757C387.52 178.637 387.29 176.577 387.11 174.577C388.46 174.327 394.6 173.127 397.11 171.427C399.62 169.727 402.04 167.047 402.17 163.997C402.225 163.282 402.129 162.563 401.888 161.888C401.647 161.212 401.267 160.595 400.771 160.076C400.276 159.558 399.677 159.149 399.014 158.877C398.35 158.605 397.637 158.475 396.92 158.497C392.61 158.747 388.55 165.387 387.58 169.127C387.53 169.327 387.22 171.447 387.02 172.997C386.95 172.097 386.86 171.157 386.81 170.297C386.62 167.037 386.65 164.037 386.7 161.377C386.7 159.867 386.8 158.507 386.87 157.237C388.07 156.297 392.87 152.477 394.22 149.877C395.57 147.277 396.59 143.707 395.3 140.947C395.019 140.286 394.602 139.692 394.077 139.203C393.551 138.715 392.928 138.342 392.249 138.11C391.57 137.878 390.849 137.792 390.134 137.856C389.419 137.921 388.726 138.136 388.1 138.487C384.39 140.697 383.85 148.487 384.71 152.227C384.78 152.547 386.53 157.497 386.59 157.447L386.67 157.387C386.57 158.617 386.48 159.927 386.42 161.387C386.31 164.047 386.22 167.057 386.34 170.327C386.431 173.861 386.728 177.387 387.23 180.887C387.775 184.808 388.665 188.673 389.89 192.437C389.902 192.482 389.919 192.526 389.94 192.567C389.2 191.567 387.03 188.747 386.83 188.567C384.14 185.807 377.31 182.067 373.45 183.987C372.817 184.324 372.262 184.79 371.82 185.356C371.379 185.921 371.062 186.573 370.889 187.269C370.717 187.965 370.693 188.69 370.818 189.396C370.944 190.102 371.217 190.774 371.62 191.367C373.25 193.947 376.84 195.057 379.71 195.297C382.94 195.577 389.58 193.207 390.11 193.017C391.428 196.814 392.998 200.519 394.81 204.107C395.87 206.197 397 208.277 398.16 210.347C397.49 209.477 396.89 208.717 396.79 208.617C394.1 205.857 387.27 202.107 383.4 204.027C382.767 204.366 382.213 204.834 381.773 205.4C381.332 205.967 381.016 206.62 380.845 207.317C380.673 208.014 380.65 208.739 380.776 209.445C380.903 210.152 381.177 210.823 381.58 211.417C383.2 213.987 386.79 215.097 389.66 215.347C392.53 215.597 398.27 213.687 399.77 213.167C400.23 213.957 400.67 214.747 401.13 215.537C403.32 219.307 405.52 223.067 407.56 226.817C408.29 228.147 408.95 229.467 409.62 230.817C409.02 230.047 408.51 229.407 408.42 229.317C405.73 226.557 398.9 222.807 395.04 224.737C394.407 225.074 393.852 225.54 393.41 226.106C392.969 226.671 392.652 227.323 392.479 228.019C392.307 228.715 392.283 229.44 392.408 230.146C392.534 230.852 392.807 231.524 393.21 232.117C394.84 234.697 398.43 235.807 401.3 236.047C404.17 236.287 409.35 234.577 411.14 233.957C411.78 235.337 412.42 236.717 412.99 238.087C413.35 239.027 413.76 239.907 414.07 240.877L415.07 243.697C415.63 245.507 416.21 247.377 416.7 249.167C417.06 250.407 417.37 251.587 417.7 252.787C417 251.457 415.56 248.897 415.42 248.697C413.347 246.009 410.616 243.901 407.49 242.577C407.277 242.266 407.032 241.978 406.76 241.717C406.261 241.202 405.659 240.798 404.993 240.53C404.327 240.263 403.612 240.139 402.895 240.167C402.178 240.194 401.475 240.372 400.832 240.689C400.188 241.006 399.619 241.455 399.16 242.007C396.49 245.397 398.77 252.847 400.93 256.007C401.06 256.187 402.66 258.087 403.7 259.257C402.99 258.657 402.3 258.067 401.56 257.467C400.1 256.247 398.61 255.087 397.01 253.817L394.56 252.107C393.77 251.497 392.86 250.957 392 250.377C390 249.067 387.88 247.847 385.73 246.657C386.79 245.377 390.48 240.777 391.26 237.987C392.04 235.197 392.26 231.467 390.4 228.987C389.984 228.402 389.45 227.912 388.832 227.547C388.214 227.182 387.526 226.951 386.814 226.869C386.101 226.787 385.379 226.856 384.694 227.071C384.01 227.286 383.378 227.642 382.84 228.117C379.69 231.117 380.84 238.777 382.47 242.267C382.57 242.487 384.03 244.857 384.86 246.137C383.56 245.437 382.27 244.727 380.94 244.057C377.08 242.117 373.12 240.277 369.17 238.427L365.56 236.697C365.95 236.247 370.46 230.877 371.33 227.757C372.1 224.977 372.33 221.227 370.47 218.807C370.054 218.222 369.52 217.732 368.902 217.367C368.284 217.002 367.596 216.771 366.884 216.689C366.171 216.607 365.449 216.676 364.764 216.891C364.08 217.106 363.448 217.462 362.91 217.937C359.76 220.887 360.91 228.597 362.53 232.087C362.66 232.347 364.77 235.757 365.34 236.597C362.7 235.327 360.08 234.037 357.54 232.667C354.107 230.822 350.797 228.758 347.63 226.487C347.81 226.277 352.54 220.697 353.43 217.487C354.21 214.717 354.43 210.967 352.57 208.487C352.155 207.902 351.622 207.411 351.004 207.047C350.387 206.682 349.7 206.451 348.987 206.37C348.275 206.289 347.553 206.359 346.87 206.576C346.186 206.792 345.556 207.15 345.02 207.627C341.86 210.577 343.02 218.277 344.64 221.767C344.77 222.047 347.04 225.707 347.5 226.337C347.32 226.207 347.11 226.087 346.93 225.957C343.817 223.594 340.922 220.957 338.28 218.077C336.8 216.507 335.47 214.927 334.21 213.357C335.21 212.407 339.67 208.017 340.79 205.227C341.91 202.437 342.49 198.847 340.92 196.227C340.57 195.601 340.093 195.055 339.518 194.624C338.944 194.194 338.286 193.89 337.586 193.73C336.887 193.571 336.161 193.56 335.457 193.699C334.753 193.838 334.087 194.124 333.5 194.537C330.04 197.127 330.32 204.907 331.57 208.537C331.64 208.737 332.57 210.677 333.24 212.077C332.69 211.357 332.1 210.627 331.58 209.937C329.58 207.317 327.99 204.807 326.58 202.567C325.78 201.287 325.08 200.117 324.43 199.007C324.92 197.567 326.79 191.747 326.51 188.817C326.23 185.887 325.08 182.367 322.51 180.817C321.911 180.421 321.236 180.156 320.528 180.039C319.821 179.921 319.096 179.954 318.402 180.135C317.707 180.316 317.059 180.641 316.499 181.09C315.938 181.538 315.479 182.099 315.15 182.737C313.27 186.627 317.1 193.407 319.9 196.067C320.14 196.297 324.32 199.457 324.35 199.377V199.297C324.95 200.367 325.6 201.517 326.35 202.747C327.73 205.027 329.35 207.587 331.22 210.247C333.245 213.144 335.435 215.922 337.78 218.567C340.397 221.535 343.272 224.266 346.37 226.727L346.48 226.807C345.3 226.367 341.95 225.227 341.68 225.177C337.91 224.357 330.15 224.997 327.98 228.737C327.639 229.367 327.434 230.062 327.378 230.777C327.323 231.492 327.419 232.21 327.659 232.885C327.9 233.561 328.28 234.178 328.774 234.697C329.269 235.216 329.867 235.625 330.53 235.897C333.29 237.217 336.9 236.157 339.43 234.777Z" fill="#7FD1AE"/>
<path d="M386.44 174.107C386.52 174.107 384.52 169.257 384.36 168.957C382.49 165.587 376.89 160.167 372.66 161.007C371.968 161.17 371.319 161.476 370.752 161.905C370.186 162.334 369.715 162.876 369.37 163.498C369.026 164.119 368.815 164.806 368.751 165.513C368.687 166.221 368.772 166.934 369 167.607C369.88 170.517 373.05 172.537 375.76 173.527C378.88 174.697 386.44 174.107 386.44 174.107Z" fill="#7FD1AE"/>
<path d="M608.74 64.3671H537.85L534.85 69.8371C533.258 72.7061 530.927 75.0968 528.1 76.7614C525.272 78.426 522.051 79.3038 518.77 79.3038C515.489 79.3038 512.268 78.426 509.44 76.7614C506.613 75.0968 504.282 72.7061 502.69 69.8371L499.74 64.3671H428.9C425.316 64.3217 421.86 65.7015 419.293 68.203C416.726 70.7045 415.257 74.1231 415.21 77.7071V442.767C415.257 446.351 416.726 449.77 419.293 452.271C421.86 454.773 425.316 456.153 428.9 456.107H608.74C612.325 456.153 615.782 454.773 618.35 452.272C620.919 449.771 622.39 446.352 622.44 442.767V77.7071C622.39 74.1221 620.919 70.7036 618.35 68.2024C615.782 65.7011 612.325 64.3217 608.74 64.3671V64.3671Z" fill="white"/>
<path d="M608.18 69.6171H593.89V77.4571H608.18V69.6171Z" stroke="#263238" stroke-width="0.910723" stroke-linecap="round" stroke-linejoin="round"/>
<path d="M605.04 69.6171H593.89V77.4571H605.04V69.6171Z" fill="#263238" stroke="#263238" stroke-width="0.804247" stroke-linecap="round" stroke-linejoin="round"/>
<path d="M610.16 71.8071H608.15V75.2571H610.16V71.8071Z" fill="#263238" stroke="#263238" stroke-width="0.804247" stroke-linecap="round" stroke-linejoin="round"/>
<path d="M429.63 72.0471H427.01V76.5371H429.63V72.0471Z" fill="#263238" stroke="#263238" stroke-width="0.979514" stroke-linecap="round" stroke-linejoin="round"/>
<path d="M433.75 70.4671H431.13V76.5371H433.75V70.4671Z" fill="#263238" stroke="#263238" stroke-width="0.979514" stroke-linecap="round" stroke-linejoin="round"/>
<path d="M437.87 68.6071H435.25V76.5371H437.87V68.6071Z" fill="#263238" stroke="#263238" stroke-width="0.979514" stroke-linecap="round" stroke-linejoin="round"/>
<path d="M421.55 80.1371H616.06" stroke="#263238" stroke-width="1.10919" stroke-linecap="round" stroke-linejoin="round"/>
<path d="M632.53 189.837C632.915 189.837 633.283 189.684 633.555 189.412C633.827 189.14 633.98 188.772 633.98 188.387V149.467C633.98 149.083 633.827 148.714 633.555 148.442C633.283 148.17 632.915 148.017 632.53 148.017H628.75V73.6671C628.75 71.2132 628.266 68.7833 627.327 66.5163C626.388 64.2493 625.011 62.1896 623.275 60.4548C621.54 58.7201 619.479 57.3444 617.212 56.4062C614.944 55.468 612.514 54.9858 610.06 54.9871H427.58C425.126 54.9858 422.696 55.468 420.428 56.4062C418.161 57.3444 416.1 58.7201 414.365 60.4548C412.629 62.1896 411.252 64.2493 410.313 66.5163C409.374 68.7833 408.89 71.2132 408.89 73.6671V457.327C408.89 459.781 409.374 462.211 410.313 464.478C411.252 466.745 412.629 468.805 414.365 470.539C416.1 472.274 418.161 473.65 420.428 474.588C422.696 475.526 425.126 476.008 427.58 476.007H610.06C612.514 476.008 614.944 475.526 617.212 474.588C619.479 473.65 621.54 472.274 623.275 470.539C625.011 468.805 626.388 466.745 627.327 464.478C628.266 462.211 628.75 459.781 628.75 457.327V223.327H632.53C632.915 223.327 633.283 223.174 633.555 222.902C633.827 222.63 633.98 222.262 633.98 221.877V204.527C633.98 204.143 633.827 203.774 633.555 203.502C633.283 203.23 632.915 203.077 632.53 203.077H628.75V189.837H632.53ZM622.44 442.767C622.39 446.352 620.919 449.771 618.35 452.272C615.782 454.773 612.325 456.153 608.74 456.107H428.9C425.316 456.153 421.86 454.773 419.293 452.271C416.726 449.77 415.257 446.351 415.21 442.767V77.7071C415.257 74.123 416.726 70.7045 419.293 68.203C421.86 65.7015 425.316 64.3217 428.9 64.3671H499.79L502.74 69.8371C504.332 72.7061 506.663 75.0968 509.49 76.7614C512.318 78.426 515.539 79.3038 518.82 79.3038C522.101 79.3038 525.322 78.426 528.15 76.7614C530.977 75.0968 533.308 72.7061 534.9 69.8371L537.9 64.3671H608.79C612.375 64.3217 615.832 65.7011 618.4 68.2024C620.969 70.7036 622.44 74.1221 622.49 77.7071L622.44 442.767Z" fill="#263238" stroke="#263238" stroke-width="1.10919" stroke-linecap="round" stroke-linejoin="round"/>
<path d="M523.7 66.4571C523.7 65.4919 523.414 64.5484 522.878 63.7459C522.341 62.9434 521.579 62.3179 520.687 61.9486C519.796 61.5792 518.815 61.4826 517.868 61.6709C516.921 61.8592 516.052 62.324 515.369 63.0064C514.687 63.6889 514.222 64.5585 514.034 65.5051C513.845 66.4517 513.942 67.4329 514.311 68.3246C514.681 69.2163 515.306 69.9785 516.109 70.5147C516.911 71.0509 517.855 71.3371 518.82 71.3371C519.461 71.3384 520.096 71.2131 520.689 70.9683C521.282 70.7236 521.82 70.3642 522.274 69.9107C522.727 69.4573 523.086 68.9188 523.331 68.3262C523.576 67.7335 523.701 67.0983 523.7 66.4571V66.4571Z" fill="white" stroke="#263238" stroke-width="1.10919" stroke-linecap="round" stroke-linejoin="round"/>
<path d="M544.46 91.1971H434.46C432.235 91.1971 430.101 92.0811 428.527 93.6545C426.954 95.2279 426.07 97.362 426.07 99.5871V144.657L435.94 134.107H544.46C546.685 134.107 548.819 133.223 550.393 131.65C551.966 130.076 552.85 127.942 552.85 125.717V99.5871C552.85 97.362 551.966 95.2279 550.393 93.6545C548.819 92.0811 546.685 91.1971 544.46 91.1971Z" fill="#A3A3A3"/>
<path d="M450.375 121.27C456.801 120.223 461.163 114.165 460.116 107.738C459.069 101.311 453.011 96.9498 446.584 97.9964C440.158 99.0431 435.796 105.102 436.843 111.528C437.889 117.955 443.948 122.316 450.375 121.27Z" fill="white"/>
<path d="M454.43 109.907C454.43 109.907 455.67 108.257 455.95 109.907C456.23 111.557 453.83 113.627 453.83 113.627L454.43 109.907Z" fill="white" stroke="#263238" stroke-width="1.10919" stroke-linecap="round" stroke-linejoin="round"/>
<path d="M442.57 109.907C442.57 109.907 441.34 108.257 441.06 109.907C440.78 111.557 443.17 113.627 443.17 113.627L442.57 109.907Z" fill="white" stroke="#263238" stroke-width="1.10919" stroke-linecap="round" stroke-linejoin="round"/>
<path d="M448.92 101.777C448.92 101.777 444.25 101.417 443.17 104.527C442.09 107.637 442.82 112.667 443.17 113.627C443.52 114.587 446.53 119.247 447.36 119.627C448.19 120.007 450.24 119.867 450.59 119.387C450.94 118.907 453.95 114.477 454.18 112.927C454.278 110.64 454.235 108.349 454.05 106.067C454.006 105.262 453.736 104.486 453.271 103.828C452.806 103.17 452.164 102.657 451.42 102.347C450.625 102.018 449.779 101.825 448.92 101.777V101.777Z" fill="white" stroke="#263238" stroke-width="1.10919" stroke-linecap="round" stroke-linejoin="round"/>
<path d="M454.05 106.047C454.006 105.242 453.736 104.466 453.271 103.808C452.806 103.15 452.164 102.637 451.42 102.327C450.623 102.005 449.778 101.819 448.92 101.777C448.92 101.777 444.25 101.417 443.17 104.527C442.663 106.3 442.483 108.15 442.64 109.987C442.88 110.267 443.64 111.097 443.54 110.047C443.4 108.807 443.26 105.047 444.23 104.267C445.2 103.487 445.33 102.757 446.7 103.857C448.07 104.957 447.94 105.917 449.32 105.237C450.7 104.557 450.97 103.037 452.2 103.587C453.43 104.137 453.03 106.747 453.03 107.987C453.03 109.227 453.03 111.557 453.86 110.457C454.012 110.227 454.133 109.978 454.22 109.717C454.18 108.457 454.11 107.107 454.05 106.047Z" fill="#263238" stroke="#263238" stroke-width="1.10919" stroke-linecap="round" stroke-linejoin="round"/>
<path d="M446.93 118.857C446.93 118.857 448.41 115.857 449.35 116.977C449.936 117.672 450.36 118.488 450.59 119.367C450.023 119.745 449.338 119.902 448.663 119.808C447.988 119.714 447.372 119.376 446.93 118.857V118.857Z" fill="#263238" stroke="#263238" stroke-width="1.10919" stroke-linecap="round" stroke-linejoin="round"/>
<path d="M447.6 101.547C447.368 101.011 446.999 100.546 446.53 100.197L445.86 99.7971C445.86 99.7971 447.47 99.1271 448 99.6671C448.338 100.001 448.652 100.359 448.94 100.737C448.94 100.737 449.21 98.8571 449.88 99.5271C450.261 99.9115 450.665 100.272 451.09 100.607C451.09 100.607 449.21 101.137 449.21 102.487" fill="#263238"/>
<path d="M447.6 101.547C447.368 101.011 446.999 100.546 446.53 100.197L445.86 99.7971C445.86 99.7971 447.47 99.1271 448 99.6671C448.338 100.001 448.652 100.359 448.94 100.737C448.94 100.737 449.21 98.8571 449.88 99.5271C450.261 99.9115 450.665 100.272 451.09 100.607C451.09 100.607 449.21 101.137 449.21 102.487" stroke="#263238" stroke-width="1.10919" stroke-linecap="round" stroke-linejoin="round"/>
<path d="M467.23 101.217H491.67" stroke="white" stroke-width="2.21839" stroke-linecap="round" stroke-linejoin="round"/>
<path d="M467.23 109.727H542.04" stroke="white" stroke-width="1.10919" stroke-linecap="round" stroke-linejoin="round"/>
<path d="M467.23 116.767H542.04" stroke="white" stroke-width="1.10919" stroke-linecap="round" stroke-linejoin="round"/>
<path d="M467.23 124.547H542.04" stroke="white" stroke-width="1.10919" stroke-linecap="round" stroke-linejoin="round"/>
<path d="M602.84 152.107H492.78C491.679 152.107 490.588 152.324 489.571 152.746C488.553 153.168 487.629 153.786 486.851 154.565C486.073 155.344 485.456 156.269 485.035 157.287C484.614 158.305 484.399 159.396 484.4 160.497V186.667C484.4 188.891 485.283 191.023 486.854 192.596C488.425 194.169 490.557 195.054 492.78 195.057H601.31L611.23 205.567V160.477C611.225 158.255 610.338 156.127 608.766 154.557C607.193 152.988 605.062 152.107 602.84 152.107Z" fill="#7FD1AE"/>
<path d="M525.61 162.097H550.05" stroke="#263238" stroke-width="2.21839" stroke-linecap="round" stroke-linejoin="round"/>
<path d="M525.61 170.617H600.42" stroke="#263238" stroke-width="1.10919" stroke-linecap="round" stroke-linejoin="round"/>
<path d="M525.61 177.657H600.42" stroke="#263238" stroke-width="1.10919" stroke-linecap="round" stroke-linejoin="round"/>
<path d="M525.61 185.437H600.42" stroke="#263238" stroke-width="1.10919" stroke-linecap="round" stroke-linejoin="round"/>
<path d="M507.35 184.787C513.861 184.787 519.14 179.509 519.14 172.997C519.14 166.486 513.861 161.207 507.35 161.207C500.839 161.207 495.56 166.486 495.56 172.997C495.56 179.509 500.839 184.787 507.35 184.787Z" fill="white"/>
<path d="M505.87 164.037C504.649 163.964 503.438 164.3 502.43 164.991C501.421 165.683 500.671 166.692 500.3 167.857C498.921 171.549 498.144 175.439 498 179.377C498 181.817 502.83 183.747 505.47 183.947C508.11 184.147 514.05 184.047 516.09 180.797C518.13 177.547 514.82 170.947 514 166.887C513.18 162.827 508.71 163.837 505.87 164.037Z" fill="#263238" stroke="#263238" stroke-width="1.10919" stroke-linecap="round" stroke-linejoin="round"/>
<path d="M513.3 172.187C513.3 172.187 514.54 170.537 514.81 172.187C515.08 173.837 512.7 175.897 512.7 175.897L513.3 172.187Z" fill="white" stroke="#263238" stroke-width="1.10919" stroke-linecap="round" stroke-linejoin="round"/>
<path d="M501.44 172.187C501.44 172.187 500.2 170.537 499.93 172.187C499.66 173.837 502.04 175.897 502.04 175.897L501.44 172.187Z" fill="white" stroke="#263238" stroke-width="1.10919" stroke-linecap="round" stroke-linejoin="round"/>
<path d="M507.79 164.107C507.79 164.107 503.12 163.747 502.04 166.857C500.96 169.967 501.68 174.997 502.04 175.947C502.4 176.897 505.39 181.577 506.23 181.947C507.07 182.317 509.1 182.187 509.46 181.707C509.82 181.227 512.81 176.797 513.05 175.247C513.148 172.96 513.105 170.669 512.92 168.387C512.878 167.582 512.608 166.805 512.143 166.147C511.677 165.489 511.035 164.976 510.29 164.667C509.494 164.341 508.649 164.152 507.79 164.107V164.107Z" fill="white" stroke="#263238" stroke-width="1.10919" stroke-linecap="round" stroke-linejoin="round"/>
<path d="M504.24 165.257C504.24 165.257 511.79 172.187 513.3 172.187C514.81 172.187 515.01 167.087 513.38 164.647C511.75 162.207 504 160.787 504.24 165.257Z" fill="#263238" stroke="#263238" stroke-width="1.10919" stroke-linecap="round" stroke-linejoin="round"/>
<path d="M544.46 214.787H434.46C432.237 214.787 430.104 215.67 428.531 217.241C426.958 218.812 426.073 220.944 426.07 223.167V268.237L435.99 257.727H544.46C545.561 257.728 546.652 257.513 547.67 257.092C548.688 256.672 549.613 256.055 550.392 255.276C551.171 254.498 551.789 253.574 552.211 252.556C552.633 251.539 552.85 250.448 552.85 249.347V223.167C552.85 222.066 552.633 220.975 552.211 219.958C551.789 218.941 551.171 218.016 550.392 217.238C549.613 216.46 548.688 215.843 547.67 215.422C546.652 215.002 545.561 214.786 544.46 214.787V214.787Z" fill="#A3A3A3"/>
<path d="M459.351 237.747C461.858 231.738 459.02 224.833 453.011 222.326C447.001 219.818 440.097 222.657 437.59 228.666C435.082 234.675 437.921 241.58 443.93 244.087C449.939 246.595 456.843 243.756 459.351 237.747Z" fill="white"/>
<path d="M454.43 233.497C454.43 233.497 455.67 231.847 455.95 233.497C456.23 235.147 453.83 237.207 453.83 237.207L454.43 233.497Z" fill="white" stroke="#263238" stroke-width="1.10919" stroke-linecap="round" stroke-linejoin="round"/>
<path d="M442.57 233.497C442.57 233.497 441.34 231.847 441.06 233.497C440.78 235.147 443.17 237.207 443.17 237.207L442.57 233.497Z" fill="white" stroke="#263238" stroke-width="1.10919" stroke-linecap="round" stroke-linejoin="round"/>
<path d="M448.92 225.357C448.92 225.357 444.25 224.997 443.17 228.107C442.09 231.217 442.82 236.247 443.17 237.207C443.52 238.167 446.53 242.837 447.36 243.207C448.19 243.577 450.24 243.447 450.59 242.967C450.94 242.487 453.95 238.067 454.18 236.507C454.278 234.22 454.235 231.929 454.05 229.647C454.008 228.843 453.739 228.068 453.273 227.411C452.807 226.754 452.165 226.243 451.42 225.937C450.624 225.609 449.779 225.413 448.92 225.357V225.357Z" fill="white" stroke="#263238" stroke-width="1.10919" stroke-linecap="round" stroke-linejoin="round"/>
<path d="M454.05 229.627C454.008 228.823 453.739 228.048 453.273 227.391C452.807 226.734 452.165 226.223 451.42 225.917C450.623 225.596 449.778 225.407 448.92 225.357C448.92 225.357 444.25 224.997 443.17 228.107C442.663 229.883 442.484 231.737 442.64 233.577C442.88 233.847 443.64 234.687 443.54 233.637C443.4 232.397 443.26 228.637 444.23 227.857C445.2 227.077 445.33 226.347 446.7 227.447C448.07 228.547 447.94 229.507 449.32 228.817C450.7 228.127 450.97 226.617 452.2 227.167C453.43 227.717 453.03 230.327 453.03 231.567C453.03 232.807 453.03 235.147 453.86 234.047C454.011 233.813 454.132 233.561 454.22 233.297C454.18 232.047 454.11 230.677 454.05 229.627Z" fill="#263238" stroke="#263238" stroke-width="1.10919" stroke-linecap="round" stroke-linejoin="round"/>
<path d="M446.93 242.437C446.93 242.437 448.41 239.437 449.35 240.557C449.934 241.253 450.357 242.069 450.59 242.947C450.023 243.325 449.338 243.482 448.663 243.388C447.988 243.294 447.372 242.956 446.93 242.437V242.437Z" fill="#263238" stroke="#263238" stroke-width="1.10919" stroke-linecap="round" stroke-linejoin="round"/>
<path d="M447.6 225.107C447.368 224.573 446.999 224.111 446.53 223.767L445.86 223.367C445.86 223.367 447.47 222.697 448 223.227C448.337 223.566 448.651 223.927 448.94 224.307C448.94 224.307 449.21 222.427 449.88 223.097C450.259 223.48 450.663 223.838 451.09 224.167C451.09 224.167 449.21 224.707 449.21 226.047" fill="#263238"/>
<path d="M447.6 225.107C447.368 224.573 446.999 224.111 446.53 223.767L445.86 223.367C445.86 223.367 447.47 222.697 448 223.227C448.337 223.566 448.651 223.927 448.94 224.307C448.94 224.307 449.21 222.427 449.88 223.097C450.259 223.48 450.663 223.838 451.09 224.167C451.09 224.167 449.21 224.707 449.21 226.047" stroke="#263238" stroke-width="1.10919" stroke-linecap="round" stroke-linejoin="round"/>
<path d="M467.23 224.797H491.67" stroke="white" stroke-width="2.21839" stroke-linecap="round" stroke-linejoin="round"/>
<path d="M467.23 233.317H542.04" stroke="white" stroke-width="1.10919" stroke-linecap="round" stroke-linejoin="round"/>
<path d="M467.23 240.357H542.04" stroke="white" stroke-width="1.10919" stroke-linecap="round" stroke-linejoin="round"/>
<path d="M467.23 248.127H542.04" stroke="white" stroke-width="1.10919" stroke-linecap="round" stroke-linejoin="round"/>
<path d="M544.46 276.317H434.46C433.352 276.308 432.254 276.518 431.228 276.936C430.202 277.353 429.269 277.97 428.482 278.75C427.696 279.53 427.071 280.458 426.645 281.48C426.219 282.503 426 283.599 426 284.707V329.777L435.92 319.267H544.46C546.685 319.267 548.819 318.383 550.393 316.81C551.966 315.236 552.85 313.102 552.85 310.877V284.707C552.851 283.605 552.635 282.513 552.214 281.495C551.793 280.476 551.175 279.551 550.396 278.772C549.616 277.992 548.691 277.374 547.672 276.953C546.654 276.532 545.562 276.316 544.46 276.317V276.317Z" fill="#A3A3A3"/>
<path d="M459.345 299.272C461.853 293.263 459.014 286.359 453.005 283.851C446.996 281.344 440.092 284.182 437.584 290.191C435.076 296.201 437.915 303.105 443.924 305.613C449.934 308.12 456.838 305.281 459.345 299.272Z" fill="white"/>
<path d="M454.43 295.027C454.43 295.027 455.67 293.377 455.95 295.027C456.23 296.677 453.83 298.737 453.83 298.737L454.43 295.027Z" fill="white" stroke="#263238" stroke-width="1.10919" stroke-linecap="round" stroke-linejoin="round"/>
<path d="M442.57 295.027C442.57 295.027 441.34 293.377 441.06 295.027C440.78 296.677 443.17 298.737 443.17 298.737L442.57 295.027Z" fill="white" stroke="#263238" stroke-width="1.10919" stroke-linecap="round" stroke-linejoin="round"/>
<path d="M448.92 286.887C448.92 286.887 444.25 286.527 443.17 289.647C442.09 292.767 442.82 297.777 443.17 298.737C443.52 299.697 446.53 304.367 447.36 304.737C448.19 305.107 450.24 304.977 450.59 304.497C450.94 304.017 453.95 299.587 454.18 298.027C454.278 295.74 454.235 293.449 454.05 291.167C454.008 290.363 453.739 289.588 453.273 288.931C452.807 288.274 452.165 287.763 451.42 287.457C450.623 287.132 449.779 286.94 448.92 286.887V286.887Z" fill="white" stroke="#263238" stroke-width="1.10919" stroke-linecap="round" stroke-linejoin="round"/>
<path d="M454.05 291.157C454.008 290.353 453.739 289.578 453.273 288.921C452.807 288.264 452.165 287.753 451.42 287.447C450.623 287.126 449.778 286.937 448.92 286.887C448.92 286.887 444.25 286.527 443.17 289.647C442.663 291.42 442.483 293.27 442.64 295.107C442.88 295.387 443.64 296.217 443.54 295.167C443.4 293.927 443.26 290.217 444.23 289.387C445.2 288.557 445.33 287.877 446.7 288.977C448.07 290.077 447.94 291.037 449.32 290.347C450.7 289.657 450.97 288.147 452.2 288.697C453.43 289.247 453.03 291.867 453.03 293.097C453.03 294.327 453.03 296.677 453.86 295.577C454.01 295.346 454.13 295.097 454.22 294.837C454.18 293.577 454.11 292.207 454.05 291.157Z" fill="#263238" stroke="#263238" stroke-width="1.10919" stroke-linecap="round" stroke-linejoin="round"/>
<path d="M446.93 303.967C446.93 303.967 448.41 301.017 449.35 302.097C449.936 302.792 450.36 303.608 450.59 304.487C450.022 304.862 449.336 305.016 448.662 304.92C447.987 304.825 447.372 304.485 446.93 303.967V303.967Z" fill="#263238" stroke="#263238" stroke-width="1.10919" stroke-linecap="round" stroke-linejoin="round"/>
<path d="M447.6 286.657C447.368 286.123 446.999 285.661 446.53 285.317L445.86 284.917C445.86 284.917 447.47 284.247 448 284.777C448.337 285.116 448.651 285.477 448.94 285.857C448.94 285.857 449.21 283.977 449.88 284.647C450.259 285.03 450.663 285.388 451.09 285.717C451.09 285.717 449.21 286.257 449.21 287.597" fill="#263238"/>
<path d="M447.6 286.657C447.368 286.123 446.999 285.661 446.53 285.317L445.86 284.917C445.86 284.917 447.47 284.247 448 284.777C448.337 285.116 448.651 285.477 448.94 285.857C448.94 285.857 449.21 283.977 449.88 284.647C450.259 285.03 450.663 285.388 451.09 285.717C451.09 285.717 449.21 286.257 449.21 287.597" stroke="#263238" stroke-width="1.10919" stroke-linecap="round" stroke-linejoin="round"/>
<path d="M467.23 286.327H491.67" stroke="white" stroke-width="2.21839" stroke-linecap="round" stroke-linejoin="round"/>
<path d="M467.23 294.847H542.04" stroke="white" stroke-width="1.10919" stroke-linecap="round" stroke-linejoin="round"/>
<path d="M467.23 301.887H542.04" stroke="white" stroke-width="1.10919" stroke-linecap="round" stroke-linejoin="round"/>
<path d="M467.23 309.657H542.04" stroke="white" stroke-width="1.10919" stroke-linecap="round" stroke-linejoin="round"/>
<path d="M544.46 392.267H434.46C432.235 392.267 430.101 393.151 428.527 394.724C426.954 396.298 426.07 398.432 426.07 400.657V445.727L435.99 435.217H544.46C545.562 435.218 546.654 435.002 547.672 434.581C548.691 434.16 549.616 433.542 550.396 432.763C551.175 431.983 551.793 431.058 552.214 430.039C552.635 429.021 552.851 427.929 552.85 426.827V400.657C552.85 398.432 551.966 396.298 550.393 394.724C548.819 393.151 546.685 392.267 544.46 392.267V392.267Z" fill="#A3A3A3"/>
<path d="M450.389 422.345C456.816 421.298 461.178 415.24 460.131 408.813C459.084 402.386 453.026 398.025 446.599 399.071C440.172 400.118 435.811 406.177 436.857 412.603C437.904 419.03 443.963 423.391 450.389 422.345Z" fill="white"/>
<path d="M454.43 410.987C454.43 410.987 455.67 409.337 455.95 410.987C456.23 412.637 453.83 414.697 453.83 414.697L454.43 410.987Z" fill="white" stroke="#263238" stroke-width="1.10919" stroke-linecap="round" stroke-linejoin="round"/>
<path d="M442.57 410.987C442.57 410.987 441.34 409.337 441.06 410.987C440.78 412.637 443.17 414.697 443.17 414.697L442.57 410.987Z" fill="white" stroke="#263238" stroke-width="1.10919" stroke-linecap="round" stroke-linejoin="round"/>
<path d="M448.92 402.847C448.92 402.847 444.25 402.487 443.17 405.597C442.09 408.707 442.82 413.737 443.17 414.697C443.52 415.657 446.53 420.317 447.36 420.697C448.19 421.077 450.24 420.937 450.59 420.457C450.94 419.977 453.95 415.557 454.18 413.997C454.278 411.71 454.235 409.419 454.05 407.137C454.006 406.332 453.736 405.556 453.271 404.898C452.806 404.24 452.164 403.727 451.42 403.417C450.623 403.092 449.779 402.9 448.92 402.847V402.847Z" fill="white" stroke="#263238" stroke-width="1.10919" stroke-linecap="round" stroke-linejoin="round"/>
<path d="M454.05 407.107C454.006 406.302 453.736 405.526 453.271 404.868C452.806 404.21 452.164 403.697 451.42 403.387C450.622 403.069 449.778 402.884 448.92 402.837C448.92 402.837 444.25 402.477 443.17 405.587C442.663 407.363 442.484 409.217 442.64 411.057C442.88 411.327 443.64 412.167 443.54 411.107C443.4 409.877 443.26 406.157 444.23 405.337C445.2 404.517 445.33 403.817 446.7 404.917C448.07 406.017 447.94 406.987 449.32 406.297C450.7 405.607 450.97 404.097 452.2 404.647C453.43 405.197 453.03 407.807 453.03 409.047C453.03 410.287 453.03 412.627 453.86 411.527C454.009 411.292 454.13 411.041 454.22 410.777C454.18 409.527 454.11 408.167 454.05 407.107Z" fill="#263238" stroke="#263238" stroke-width="1.10919" stroke-linecap="round" stroke-linejoin="round"/>
<path d="M446.93 419.927C446.93 419.927 448.41 416.977 449.35 418.047C449.934 418.743 450.357 419.559 450.59 420.437C450.023 420.815 449.338 420.972 448.663 420.878C447.988 420.784 447.372 420.446 446.93 419.927V419.927Z" fill="#263238" stroke="#263238" stroke-width="1.10919" stroke-linecap="round" stroke-linejoin="round"/>
<path d="M447.6 402.617C447.368 402.083 446.999 401.621 446.53 401.277L445.86 400.877C445.86 400.877 447.47 400.197 448 400.737C448.335 401.074 448.649 401.431 448.94 401.807C448.94 401.807 449.21 399.937 449.88 400.607C450.259 400.99 450.663 401.348 451.09 401.677C451.09 401.677 449.21 402.217 449.21 403.557" fill="#263238"/>
<path d="M447.6 402.617C447.368 402.083 446.999 401.621 446.53 401.277L445.86 400.877C445.86 400.877 447.47 400.197 448 400.737C448.335 401.074 448.649 401.431 448.94 401.807C448.94 401.807 449.21 399.937 449.88 400.607C450.259 400.99 450.663 401.348 451.09 401.677C451.09 401.677 449.21 402.217 449.21 403.557" stroke="#263238" stroke-width="1.10919" stroke-linecap="round" stroke-linejoin="round"/>
<path d="M467.23 402.287H491.67" stroke="white" stroke-width="2.21839" stroke-linecap="round" stroke-linejoin="round"/>
<path d="M467.23 410.807H542.04" stroke="white" stroke-width="1.10919" stroke-linecap="round" stroke-linejoin="round"/>
<path d="M467.23 417.837H542.04" stroke="white" stroke-width="1.10919" stroke-linecap="round" stroke-linejoin="round"/>
<path d="M467.23 425.617H542.04" stroke="white" stroke-width="1.10919" stroke-linecap="round" stroke-linejoin="round"/>
<path d="M602.84 337.707H492.78C491.678 337.708 490.587 337.927 489.57 338.35C488.553 338.772 487.628 339.392 486.85 340.172C486.072 340.952 485.455 341.877 485.035 342.896C484.614 343.914 484.399 345.005 484.4 346.107V372.277C484.399 373.378 484.614 374.469 485.035 375.487C485.456 376.505 486.073 377.43 486.851 378.209C487.629 378.988 488.553 379.606 489.571 380.028C490.588 380.45 491.679 380.667 492.78 380.667H601.31L611.23 391.177V346.107C611.231 345.004 611.015 343.912 610.594 342.893C610.173 341.874 609.555 340.948 608.776 340.168C607.997 339.388 607.072 338.769 606.053 338.347C605.034 337.924 603.943 337.707 602.84 337.707Z" fill="#7FD1AE"/>
<path d="M525.61 347.727H550.05" stroke="#263238" stroke-width="2.21839" stroke-linecap="round" stroke-linejoin="round"/>
<path d="M525.61 356.247H600.42" stroke="#263238" stroke-width="1.10919" stroke-linecap="round" stroke-linejoin="round"/>
<path d="M525.61 363.277H600.42" stroke="#263238" stroke-width="1.10919" stroke-linecap="round" stroke-linejoin="round"/>
<path d="M525.61 371.057H600.42" stroke="#263238" stroke-width="1.10919" stroke-linecap="round" stroke-linejoin="round"/>
<path d="M507.35 370.417C513.861 370.417 519.14 365.139 519.14 358.627C519.14 352.116 513.861 346.837 507.35 346.837C500.839 346.837 495.56 352.116 495.56 358.627C495.56 365.139 500.839 370.417 507.35 370.417Z" fill="white"/>
<path d="M505.87 349.667C504.649 349.594 503.438 349.93 502.43 350.621C501.421 351.313 500.671 352.322 500.3 353.487C498.919 357.179 498.143 361.068 498 365.007C498 367.447 502.83 369.377 505.47 369.577C508.11 369.777 514.05 369.677 516.09 366.427C518.13 363.177 514.82 356.577 514 352.507C513.18 348.437 508.71 349.467 505.87 349.667Z" fill="#263238" stroke="#263238" stroke-width="1.10919" stroke-linecap="round" stroke-linejoin="round"/>
<path d="M513.3 357.817C513.3 357.817 514.54 356.167 514.81 357.817C515.08 359.467 512.7 361.527 512.7 361.527L513.3 357.817Z" fill="white" stroke="#263238" stroke-width="1.10919" stroke-linecap="round" stroke-linejoin="round"/>
<path d="M501.44 357.817C501.44 357.817 500.2 356.167 499.93 357.817C499.66 359.467 502.04 361.527 502.04 361.527L501.44 357.817Z" fill="white" stroke="#263238" stroke-width="1.10919" stroke-linecap="round" stroke-linejoin="round"/>
<path d="M507.79 349.677C507.79 349.677 503.12 349.317 502.04 352.437C500.96 355.557 501.68 360.567 502.04 361.527C502.4 362.487 505.39 367.157 506.23 367.527C507.07 367.897 509.1 367.767 509.46 367.287C509.82 366.807 512.81 362.377 513.05 360.817C513.148 358.53 513.105 356.239 512.92 353.957C512.878 353.153 512.609 352.378 512.143 351.721C511.677 351.064 511.035 350.553 510.29 350.247C509.493 349.922 508.649 349.73 507.79 349.677V349.677Z" fill="white" stroke="#263238" stroke-width="1.10919" stroke-linecap="round" stroke-linejoin="round"/>
<path d="M504.24 350.887C504.24 350.887 511.79 357.817 513.3 357.817C514.81 357.817 515.01 352.717 513.38 350.277C511.75 347.837 504 346.417 504.24 350.887Z" fill="#263238" stroke="#263238" stroke-width="1.10919" stroke-linecap="round" stroke-linejoin="round"/>
<path d="M631 451.807L629.74 474.107C629.942 474.545 630.233 474.935 630.595 475.254C630.956 475.572 631.38 475.812 631.84 475.957C633.19 476.197 662.62 475.957 662.62 475.957C662.825 474.762 662.743 473.534 662.38 472.377C662.162 471.616 661.753 470.923 661.194 470.364C660.634 469.804 659.941 469.396 659.18 469.177C657.7 468.807 647.48 464.127 646.61 463.757C645.74 463.387 645.26 457.477 645.26 457.477L631 451.807Z" fill="white" stroke="#263238" stroke-width="1.10919" stroke-miterlimit="10"/>
<path d="M662.62 475.947C662.74 475.155 662.74 474.349 662.62 473.557L629.78 472.677L629.7 474.097C629.902 474.535 630.193 474.925 630.555 475.244C630.916 475.563 631.34 475.802 631.8 475.947C633.19 476.187 662.62 475.947 662.62 475.947Z" fill="white" stroke="#263238" stroke-width="1.10919" stroke-miterlimit="10"/>
<path d="M637.11 338.827C637.11 338.827 639.64 393.547 639.36 395.227L629.82 452.747C629.82 452.747 637.95 457.237 641.88 458.077C644.939 458.651 648.032 459.025 651.14 459.197C651.14 459.197 664.05 406.727 664.61 403.647C665.17 400.567 658.15 334.107 658.15 334.107L637.11 338.827Z" fill="#263238" stroke="#263238" stroke-width="1.10919" stroke-miterlimit="10"/>
<path d="M637.5 445.897C637.5 445.897 626.05 461.657 627.4 463.257C628.75 464.857 638.73 474.337 641.2 475.447C643.67 476.557 666.2 475.447 666.2 475.447C666.429 474.804 666.554 474.129 666.57 473.447C666.57 472.447 666.45 468.647 665.1 467.537C663.75 466.427 653.52 461.627 653.1 460.887C652.68 460.147 652.24 454.117 652.24 454.117L637.5 445.897Z" fill="white" stroke="#263238" stroke-width="1.10919" stroke-miterlimit="10"/>
<path d="M666.19 475.447C666.419 474.804 666.544 474.129 666.56 473.447V472.987L650.92 473.577C650.92 473.577 646.12 474.307 643.54 472.217C641.37 470.467 631.88 461.817 628.84 459.037C627.69 461.137 627.02 462.767 627.4 463.227C628.76 464.827 638.73 474.307 641.2 475.417C643.67 476.527 666.19 475.447 666.19 475.447Z" fill="white" stroke="#263238" stroke-width="1.10919" stroke-miterlimit="10"/>
<path d="M629 313.297C629 313.297 630.69 329.567 632.09 332.097C633.49 334.627 635.74 338.547 635.74 338.547L657 398.317L635.12 446.577C635.12 446.577 651.12 456.957 654.48 458.077C655.921 458.646 657.431 459.022 658.97 459.197C658.97 459.197 684.78 398.877 684.78 394.667C684.78 390.457 666.78 330.137 666.78 330.137L668 309.367L629 313.297Z" fill="#263238" stroke="#263238" stroke-width="1.10919" stroke-miterlimit="10"/>
<path d="M650.28 318.347L662.08 323.067L652.3 315.307L659.04 318.347" stroke="#696969" stroke-width="1.10919" stroke-linecap="round" stroke-linejoin="round"/>
<path d="M643.5 359.347L657.03 398.317L637.39 443.487" stroke="#696969" stroke-width="1.10919" stroke-miterlimit="10"/>
<path d="M640.76 351.457L642.15 355.477" stroke="#696969" stroke-width="1.10919" stroke-miterlimit="10"/>
<path d="M683.3 283.107C683.3 283.107 689.94 276.867 691.3 276.107C692.66 275.347 698.07 273.717 698.46 271.857C698.85 269.997 698.33 260.857 697.8 261.247C697.27 261.637 690.24 271.597 690.24 271.597L681.08 278.767L683.3 283.107Z" fill="white" stroke="#263238" stroke-width="1.10919" stroke-miterlimit="10"/>
<path d="M692.73 268.647L691.93 274.747" stroke="#263238" stroke-width="1.10919" stroke-miterlimit="10"/>
<path d="M694.85 265.457L695.12 272.897" stroke="#263238" stroke-width="1.10919" stroke-miterlimit="10"/>
<path d="M697 262.937C697 262.937 696.87 270.767 697 271.567Z" fill="white"/>
<path d="M697 262.937C697 262.937 696.87 270.767 697 271.567" stroke="#263238" stroke-width="1.10919" stroke-miterlimit="10"/>
<path d="M698.83 269.707C698.83 269.707 701.09 266.917 700.56 265.067C700.413 264.531 700.145 264.037 699.775 263.622C699.406 263.208 698.945 262.884 698.43 262.677L698.83 269.707Z" fill="white" stroke="#263238" stroke-width="1.10919" stroke-miterlimit="10"/>
<path d="M682.51 275.947C682.91 276.207 686.09 281.117 686.09 281.117L682.09 286.427C682.09 286.427 684.09 290.147 682.89 291.077C681.69 292.007 671.74 297.177 671.74 297.177L668.42 283.777C668.42 283.777 675.85 279.127 676.25 279.267C676.643 279.472 677.001 279.739 677.31 280.057L682.51 275.947Z" fill="#7FD1AE" stroke="#263238" stroke-width="1.10919" stroke-miterlimit="10"/>
<path d="M686.74 274.157L688.12 275.107L702.74 254.187L701.36 253.227L686.74 274.157Z" fill="#263238" stroke="#263238" stroke-width="1.10919" stroke-miterlimit="10"/>
<path d="M645.14 235.637C644.32 236.037 632.73 250.077 628.45 255.567C624.17 261.057 624.59 270.017 624.79 274.897C624.99 279.777 622.79 315.997 622.79 315.997C622.79 315.997 640.49 314.577 651.07 313.557C661.65 312.537 676.7 311.557 676.7 311.557C676.7 311.557 672.43 292.847 670.4 284.497C668.37 276.147 665.11 264.157 662.87 258.497C661.323 254.694 659.485 251.016 657.37 247.497L645.14 235.637Z" fill="#7FD1AE" stroke="#263238" stroke-width="1.10919" stroke-miterlimit="10"/>
<path d="M666.7 236.247L660.19 243.567L650.19 230.957L656.09 224.037C656.09 224.037 659.55 220.377 661.59 220.777C663.63 221.177 666.7 236.247 666.7 236.247Z" fill="white" stroke="#263238" stroke-width="1.10919" stroke-miterlimit="10"/>
<path d="M659.79 228.717L663.76 239.787L666.7 236.247L659.79 228.717Z" fill="#263238" stroke="#263238" stroke-width="1.10919" stroke-miterlimit="10"/>
<path d="M659 223.837C659 223.837 656.56 227.697 654.53 226.887C652.5 226.077 647 220.167 644.53 212.887C642.06 205.607 651.04 204.337 652.46 201.497C653.88 198.657 655.11 198.237 657.14 188.267C659.17 178.297 681.96 182.167 685.42 187.457C688.88 192.747 688.27 203.327 697.83 199.867C707.39 196.407 717.77 192.747 720.01 201.287C722.25 209.827 714.92 220.207 717.57 223.877C720.22 227.547 728.76 224.877 728.15 228.347C727.54 231.817 723.06 234.047 724.48 234.857C725.9 235.667 733.84 231.607 731.6 235.267C729.36 238.927 724.69 242.797 724.08 241.167C723.47 239.537 724.08 237.507 721.84 238.727C719.6 239.947 712.84 244.827 710.04 242.187C707.24 239.547 710.85 229.977 706.17 228.957C701.49 227.937 690.1 231.197 686.23 231.397C682.36 231.597 681.96 230.397 674.84 226.927C667.72 223.457 659 223.837 659 223.837Z" fill="#263238" stroke="#263238" stroke-width="1.10919" stroke-miterlimit="10"/>
<path d="M660.6 218.107C660.6 218.107 672.6 218.717 680.33 216.677C683.866 215.852 687.335 214.766 690.71 213.427C690.71 213.427 690.91 221.357 688.88 223.597C686.85 225.837 684.2 227.867 684.2 229.497C684.2 231.127 686.2 233.767 685.01 235.197C683.82 236.627 680.94 236.617 680.13 236.617C679.32 236.617 672.81 242.727 670.98 242.727C669.15 242.727 659.98 230.517 659.79 228.727C659.68 226.559 659.68 224.386 659.79 222.217" fill="white"/>
<path d="M660.6 218.107C660.6 218.107 672.6 218.717 680.33 216.677C683.866 215.852 687.335 214.766 690.71 213.427C690.71 213.427 690.91 221.357 688.88 223.597C686.85 225.837 684.2 227.867 684.2 229.497C684.2 231.127 686.2 233.767 685.01 235.197C683.82 236.627 680.94 236.617 680.13 236.617C679.32 236.617 672.81 242.727 670.98 242.727C669.15 242.727 659.98 230.517 659.79 228.727C659.68 226.559 659.68 224.386 659.79 222.217" stroke="#263238" stroke-width="1.10919" stroke-miterlimit="10"/>
<path d="M682 225.257L679.76 227.897C679.054 227.79 678.393 227.485 677.853 227.018C677.314 226.551 676.917 225.94 676.71 225.257" stroke="#263238" stroke-width="1.10919" stroke-miterlimit="10"/>
<path d="M674.43 231.357C674.43 231.357 674.23 234.617 676.88 235.027" stroke="#263238" stroke-width="1.10919" stroke-miterlimit="10"/>
<path d="M679.52 221.797C679.52 221.797 683.18 220.577 684.81 223.627" stroke="#263238" stroke-width="1.10919" stroke-miterlimit="10"/>
<path d="M663.65 221.187C663.65 221.187 660.65 212.187 657.75 215.487C654.85 218.787 656.53 224.487 658.75 225.667C659.407 226.019 660.14 226.203 660.885 226.203C661.63 226.203 662.363 226.019 663.02 225.667" fill="white"/>
<path d="M663.65 221.187C663.65 221.187 660.65 212.187 657.75 215.487C654.85 218.787 656.53 224.487 658.75 225.667C659.407 226.019 660.14 226.203 660.885 226.203C661.63 226.203 662.363 226.019 663.02 225.667" stroke="#263238" stroke-width="1.10919" stroke-miterlimit="10"/>
<path d="M651 227.697C651 227.697 664.42 240.927 664 242.757C663.58 244.587 661.35 245.757 661.35 245.757C661.35 245.757 661.96 249.417 660.95 250.227C660.29 250.728 659.524 251.07 658.71 251.227C658.71 251.227 646 238.107 644.32 236.037C642.64 233.967 643.92 232.987 644.93 232.577C645.658 232.309 646.407 232.105 647.17 231.967C647.17 231.967 648.6 227.107 651 227.697Z" fill="#7FD1AE" stroke="#263238" stroke-width="1.10919" stroke-miterlimit="10"/>
<path d="M631.57 257.257C630.788 261.988 630.366 266.772 630.31 271.567C630.31 278.717 633.25 313.857 634.73 315.757C636.21 317.657 642.09 319.327 644.62 317.647C647.15 315.967 669.03 301.867 669.24 299.547C669.45 297.227 665.87 288.817 664.4 288.187C662.93 287.557 661.66 287.767 659.56 289.657C657.163 291.518 654.637 293.206 652 294.707C652 294.707 650.53 267.777 648.85 261.247C647.17 254.717 646.32 253.467 645.27 253.047" fill="#7FD1AE"/>
<path d="M631.57 257.257C630.788 261.988 630.366 266.772 630.31 271.567C630.31 278.717 633.25 313.857 634.73 315.757C636.21 317.657 642.09 319.327 644.62 317.647C647.15 315.967 669.03 301.867 669.24 299.547C669.45 297.227 665.87 288.817 664.4 288.187C662.93 287.557 661.66 287.767 659.56 289.657C657.163 291.518 654.637 293.206 652 294.707C652 294.707 650.53 267.777 648.85 261.247C647.17 254.717 646.32 253.467 645.27 253.047" stroke="#263238" stroke-width="1.10919" stroke-miterlimit="10"/>
<path d="M670.37 284.457C670.37 284.457 676.37 270.087 676.81 269.037C677.25 267.987 678.71 266.297 679.97 266.087C681.23 265.877 690.91 263.777 691.75 263.567C692.59 263.357 693.23 264.407 690.91 265.877C688.59 267.347 682.91 267.987 682.91 267.987L682.06 274.297C682.06 274.297 687.75 269.877 687.75 272.197C687.75 274.517 683.54 275.977 682.91 276.197C682.28 276.417 680.6 279.107 680 279.557C679.035 279.999 678.03 280.35 677 280.607C677 280.607 676.58 283.137 675.74 283.977C674.9 284.817 671.11 287.557 671.11 287.557L670.37 284.457Z" fill="white" stroke="#263238" stroke-width="1.10919" stroke-miterlimit="10"/>
<path d="M676.81 269.037C676.81 269.037 679.25 266.037 679.61 266.037C681.331 267.253 682.978 268.572 684.54 269.987C684.84 270.277 682.96 273.337 682.67 273.827C682.38 274.317 682.27 274.717 681.48 274.427C680.945 274.206 680.446 273.906 680 273.537" fill="white"/>
<path d="M676.81 269.037C676.81 269.037 679.25 266.037 679.61 266.037C681.331 267.253 682.978 268.572 684.54 269.987C684.84 270.277 682.96 273.337 682.67 273.827C682.38 274.317 682.27 274.717 681.48 274.427C680.945 274.206 680.446 273.906 680 273.537" stroke="#263238" stroke-width="1.10919" stroke-miterlimit="10"/>
<path d="M676.16 271.487C676.16 271.487 678.82 268.487 679.21 268.487C679.6 268.487 682.96 271.147 682.96 271.637C682.96 272.127 682.37 275.097 681.88 275.197C681.185 275.201 680.491 275.134 679.81 274.997" fill="white"/>
<path d="M676.16 271.487C676.16 271.487 678.82 268.487 679.21 268.487C679.6 268.487 682.96 271.147 682.96 271.637C682.96 272.127 682.37 275.097 681.88 275.197C681.185 275.201 680.491 275.134 679.81 274.997" stroke="#263238" stroke-width="1.10919" stroke-miterlimit="10"/>
<path d="M676.06 274.347C676.77 273.571 677.565 272.876 678.43 272.277C679.21 271.877 680.99 273.557 682.07 274.277C683.15 274.997 684.44 275.407 683.85 276.097C683.26 276.787 680.99 275.807 680.5 275.807C679.952 275.717 679.42 275.548 678.92 275.307L677.64 279.157" fill="white"/>
<path d="M676.06 274.347C676.77 273.571 677.565 272.876 678.43 272.277C679.21 271.877 680.99 273.557 682.07 274.277C683.15 274.997 684.44 275.407 683.85 276.097C683.26 276.787 680.99 275.807 680.5 275.807C679.952 275.717 679.42 275.548 678.92 275.307L677.64 279.157" stroke="#263238" stroke-width="1.10919" stroke-miterlimit="10"/>
<path d="M663.35 288.817L670.71 282.927L674.08 289.237L667.76 295.757C667.76 295.757 663.35 294.917 663.35 288.817Z" fill="#7FD1AE" stroke="#263238" stroke-width="1.10919" stroke-miterlimit="10"/>
<path d="M229 462.157C225.983 461.209 223.161 459.725 220.67 457.777C217.34 454.907 206.82 447.107 203.78 445.107C200.74 443.107 201.11 452.347 202.14 457.107C202.973 461.219 204.719 465.091 207.25 468.437C209.17 470.717 221.7 475.437 223.1 475.757C224.5 476.077 230.1 476.177 231.24 475.637C232.38 475.097 230 466.107 229 462.157Z" fill="white" stroke="#263238" stroke-width="1.10919" stroke-miterlimit="10"/>
<path d="M207.89 464.547C204.96 460.787 202.89 449.257 202.8 444.837C200.8 445.307 201.24 452.937 202.14 457.137C202.973 461.249 204.719 465.121 207.25 468.467C209.17 470.747 221.7 475.467 223.1 475.787C224.992 476.037 226.904 476.11 228.81 476.007C222 473.617 210.84 468.327 207.89 464.547Z" fill="white" stroke="#263238" stroke-width="1.10919" stroke-miterlimit="10"/>
<path d="M365.7 393.637C365.7 393.637 362.24 400.047 360.49 403.767C358.74 407.487 357.24 410.167 357.24 410.167C357.24 410.167 355.57 406.907 354.3 407.517C353.414 407.915 352.489 408.22 351.54 408.427C351.54 408.427 349.96 402.767 347.54 399.797C345.12 396.827 343.07 398.257 340.83 396.277C337.66 393.477 336.38 392.637 334.26 390.937C331.65 388.847 327.66 397.697 327.59 401.037C327.52 404.377 344.63 425.367 348.9 431.107C353.17 436.847 357.48 440.457 360.26 436.967C363.04 433.477 364.36 430.157 366.46 418.967C368.56 407.777 373.69 390.667 365.7 393.637Z" fill="#7FD1AE" stroke="#263238" stroke-width="1.10919" stroke-miterlimit="10"/>
<path d="M334.24 390.937L326.47 385.107C325.63 383.457 323.94 380.027 323.02 377.637C321.76 374.387 321.21 372.317 318.32 370.057C315.43 367.797 308.59 365.057 307.72 364.127C306.85 363.197 306.5 366.747 308.08 368.397C308.784 369.252 309.673 369.935 310.68 370.397C310.68 370.397 299.41 368.997 299.39 369.877C299.37 370.757 308.97 382.877 312.44 385.687C313.89 386.887 317.13 388.017 318.97 389.337C319.878 389.989 320.716 390.733 321.47 391.557C321.04 391.797 320.9 391.787 320.85 391.757C321.25 392.317 327.22 400.837 329.05 400.467C330.88 400.097 337 399.547 334.24 390.937Z" fill="white" stroke="#263238" stroke-width="1.10919" stroke-miterlimit="10"/>
<path d="M299.707 356.435L298.492 357.263L314.103 380.181L315.318 379.354L299.707 356.435Z" fill="#263238" stroke="#263238" stroke-width="1.10919" stroke-miterlimit="10"/>
<path d="M302.89 363.757C302.89 363.757 296.89 370.237 297.61 370.837C298.33 371.437 300.61 373.687 301.23 373.407C301.85 373.127 305.01 367.907 305.17 367.317C305.33 366.727 302.89 363.757 302.89 363.757Z" fill="white" stroke="#263238" stroke-width="1.10919" stroke-miterlimit="10"/>
<path d="M305.89 368.107C305.89 368.107 301.35 374.767 301.78 375.367C302.21 375.967 307.95 382.677 308.67 383.127C309.39 383.577 313.44 379.697 313.44 379.697L305.89 368.107Z" fill="white" stroke="#263238" stroke-width="1.10919" stroke-miterlimit="10"/>
<path d="M308.31 371.927C308.31 371.927 304.07 378.597 304.51 378.607" stroke="#263238" stroke-width="1.10919" stroke-miterlimit="10"/>
<path d="M311.15 376.537L307.24 381.157" stroke="#263238" stroke-width="1.10919" stroke-miterlimit="10"/>
<path d="M310.68 370.367L314.32 372.047C314.32 372.047 313.41 380.987 318.32 384.047" fill="white"/>
<path d="M310.68 370.367L314.32 372.047C314.32 372.047 313.41 380.987 318.32 384.047" stroke="#263238" stroke-width="1.10919" stroke-miterlimit="10"/>
<path d="M320.85 391.727C320.85 391.727 320.83 391.707 320.85 391.727V391.727Z" fill="white" stroke="#263238" stroke-width="1.10919" stroke-miterlimit="10"/>
<path d="M362.43 440.357C362.43 440.357 327.05 398.107 323.21 393.567C319.37 389.027 310.71 387.147 305.63 388.727C300.55 390.307 294.37 404.507 293.14 410.377C291.91 416.247 281.86 441.587 280.14 444.917C278.42 448.247 275.8 451.847 275.77 453.257C275.74 454.667 275.72 455.777 275.72 455.777L273.96 459.667C273.96 459.667 282.08 460.667 285.46 460.177C288.84 459.687 293.68 455.847 294.56 453.897C295.44 451.947 297.92 447.147 300.91 445.047C305.17 442.047 312.58 421.977 312.58 421.977L326.58 452.567C326.58 452.567 354.28 456.477 360.47 455.757C366.66 455.037 362.43 440.357 362.43 440.357Z" fill="#263238" stroke="#263238" stroke-width="1.10919" stroke-miterlimit="10"/>
<path d="M361.09 436.967C361.09 436.967 356.77 442.487 356.75 443.617V444.737L333.11 447.107C333.11 447.107 308.7 446.627 305.04 447.397C301.38 448.167 248.34 462.287 244.96 462.787C241.58 463.287 239.96 460.437 238.56 460.407C237.16 460.377 235.77 459.227 233.81 459.187C231.85 459.147 230.11 461.927 228.98 462.187C228.252 462.456 227.493 462.627 226.72 462.697C225.88 462.697 226.48 460.697 225.88 462.697C225.28 464.697 223.77 470.227 225.12 472.777C225.991 474.364 227.211 475.732 228.69 476.777C228.69 476.777 274.16 476.827 281.69 476.977C289.22 477.127 312.6 475.067 315.41 474.837C318.22 474.607 358.86 477.087 365.31 477.217C371.76 477.347 393.1 477.217 396.79 475.027C400.48 472.837 405.21 460.597 404.46 455.817C403.71 451.037 364.69 437.357 364.69 437.357L361.09 436.967Z" fill="#263238" stroke="#263238" stroke-width="1.10919" stroke-miterlimit="10"/>
<path d="M359.48 433.007C359.081 433.982 358.963 435.049 359.14 436.087C359.38 438.087 403.31 459.087 404.73 458.307C406.15 457.527 407.15 449.367 407.15 449.367L359.53 430.477L359.48 433.007Z" fill="#7FD1AE" stroke="#263238" stroke-width="1.10919" stroke-miterlimit="10"/>
<path d="M378.2 365.737C378.2 365.737 370.13 376.807 367.15 385.447C364.17 394.087 359.38 423.737 357.63 427.357C355.88 430.977 355.83 433.217 358.34 433.827C360.85 434.437 384.79 445.007 392.86 448.247C400.93 451.487 408.17 454.447 409.39 449.417C410.61 444.387 410.68 441.307 410.54 433.727C410.4 426.147 410.27 390.497 409.63 380.107C408.99 369.717 403.43 352.757 396.13 353.177C388.83 353.597 378.2 365.737 378.2 365.737Z" fill="#7FD1AE" stroke="#263238" stroke-width="1.10919" stroke-miterlimit="10"/>
<path d="M393.49 326.777C392.63 320.677 389.71 315.697 384.72 312.577C385.509 311.696 386.578 311.115 387.746 310.932C388.915 310.75 390.11 310.978 391.13 311.577C391.13 311.577 391.8 309.197 389.86 308.367C389.29 308.146 388.673 308.072 388.066 308.153C387.46 308.233 386.883 308.465 386.39 308.827C386.39 308.827 386.72 305.637 388.88 304.087C391.04 302.537 395.25 304.747 395.25 304.747C395.25 304.747 394.35 296.477 389 297.967C383.65 299.457 384.36 303.967 384.36 303.967C384.36 303.967 383.36 300.227 380.18 299.897C377 299.567 374.55 302.177 374.55 302.177C374.55 302.177 377.26 299.837 380.11 303.887C380.862 304.858 381.361 306.001 381.56 307.213C381.759 308.424 381.652 309.667 381.25 310.827C380.403 310.496 379.538 310.212 378.66 309.977C371.14 307.977 362.56 310.137 358.9 313.797C355.974 314.519 353.229 315.84 350.84 317.677C346.84 321.067 350.58 325.747 351.13 326.387L351.43 328.067C351.808 331.474 352.366 334.859 353.1 338.207C353.85 340.617 355.16 341.437 355.1 342.767C355.04 344.097 352.85 348.847 354.41 350.467C355.97 352.087 357.32 351.597 357.32 351.597C357.32 351.597 363.45 364.487 366.13 363.467C368.81 362.447 373.42 357.757 373.42 357.757L379.47 361.607L390.62 349.317L388.62 343.957C388.62 343.957 394.66 335.047 393.49 326.777Z" fill="white" stroke="#263238" stroke-width="1.10919" stroke-miterlimit="10"/>
<path d="M356.1 326.197C359.34 324.657 367.63 322.757 366.21 325.247C364.79 327.737 364.47 332.097 366.29 332.587C368.11 333.077 371.97 335.677 373.29 336.587C374.61 337.497 376.29 336.877 376.29 335.497C376.29 334.117 377.75 331.397 380.7 332.827C383.65 334.257 383.83 337.017 383.08 340.217C382.68 342.064 381.58 343.685 380.01 344.737C380.01 344.737 383.53 347.567 388.95 344.857L388.6 343.937C388.6 343.937 394.6 335.007 393.46 326.737C392.6 320.637 389.68 315.657 384.69 312.537C385.479 311.656 386.548 311.075 387.716 310.892C388.885 310.71 390.08 310.938 391.1 311.537C391.1 311.537 391.77 309.157 389.83 308.327C389.26 308.106 388.643 308.032 388.036 308.113C387.43 308.193 386.853 308.425 386.36 308.787C386.36 308.787 386.69 305.597 388.85 304.047C391.01 302.497 395.22 304.707 395.22 304.707C395.22 304.707 394.32 296.437 388.97 297.927C383.62 299.417 384.33 303.927 384.33 303.927C384.33 303.927 383.33 300.187 380.15 299.857C376.97 299.527 374.52 302.137 374.52 302.137C374.52 302.137 377.23 299.797 380.08 303.847C380.832 304.818 381.331 305.961 381.53 307.173C381.729 308.384 381.622 309.627 381.22 310.787C380.373 310.456 379.508 310.172 378.63 309.937C371.11 307.937 362.53 310.097 358.87 313.757C355.944 314.479 353.199 315.8 350.81 317.637C346.81 321.027 350.55 325.707 351.1 326.347C351.13 326.407 352.86 327.737 356.1 326.197Z" fill="#263238" stroke="#263238" stroke-width="1.10919" stroke-miterlimit="10"/>
<path d="M358.62 338.167L358.56 341.167C359.551 341.43 360.591 341.453 361.592 341.234C362.594 341.015 363.529 340.56 364.32 339.907" stroke="#263238" stroke-width="1.10919" stroke-miterlimit="10"/>
<path d="M355.23 335.357C356.013 334.389 357.116 333.731 358.34 333.502C359.564 333.273 360.83 333.488 361.91 334.107" stroke="#263238" stroke-width="1.10919" stroke-miterlimit="10"/>
<path d="M361.1 351.977C361.1 351.977 365 351.827 367.38 347.287" stroke="#263238" stroke-width="1.10919" stroke-miterlimit="10"/>
<path d="M368.11 357.157C365.79 358.257 362.87 355.217 361.5 354.967C360.39 354.757 360.58 356.967 360.7 357.827C362.58 360.967 364.81 364.007 366.17 363.487C368.85 362.487 373.46 357.777 373.46 357.777L373.67 357.917C374.287 356.885 374.676 355.732 374.81 354.537C374.84 352.707 370.42 356.107 368.11 357.157Z" fill="#263238" stroke="#263238" stroke-width="1.10919" stroke-miterlimit="10"/>
<path d="M402.43 346.567C402.43 346.567 394.06 343.877 389.19 349.117C384.32 354.357 371.1 369.807 373.91 369.867C376.72 369.927 381.64 362.157 387.3 359.737C392.96 357.317 396.3 357.397 398.21 361.357C400.12 365.317 406.62 390.707 409.21 386.267C411.8 381.827 416.48 372.947 414.12 364.477C411.76 356.007 405.2 348.307 402.43 346.567Z" fill="white" stroke="#263238" stroke-width="1.10919" stroke-miterlimit="10"/>
<path d="M381.07 376.737C381.07 376.737 374.07 388.947 373.4 395.667C372.73 402.387 370.48 430.417 370.48 430.417C370.48 430.417 367.71 428.677 366.27 430.327C364.83 431.977 363.92 435.617 363.92 435.617C363.92 435.617 360.02 434.417 359.14 436.087C358.637 437.056 358.055 437.983 357.4 438.857L333.11 447.107C333.11 447.107 371.51 449.267 374.6 449.047C376.486 448.896 378.274 448.142 379.7 446.897C379.7 446.897 382.18 448.897 386.42 447.307C390.66 445.717 392.11 443.777 393.29 440.427C394.47 437.077 400.05 396.227 400.05 396.227" fill="#7FD1AE"/>
<path d="M381.07 376.737C381.07 376.737 374.07 388.947 373.4 395.667C372.73 402.387 370.48 430.417 370.48 430.417C370.48 430.417 367.71 428.677 366.27 430.327C364.83 431.977 363.92 435.617 363.92 435.617C363.92 435.617 360.02 434.417 359.14 436.087C358.637 437.056 358.055 437.983 357.4 438.857L333.11 447.107C333.11 447.107 371.51 449.267 374.6 449.047C376.486 448.896 378.274 448.142 379.7 446.897C379.7 446.897 382.18 448.897 386.42 447.307C390.66 445.717 392.11 443.777 393.29 440.427C394.47 437.077 400.05 396.227 400.05 396.227" stroke="#263238" stroke-width="1.10919" stroke-miterlimit="10"/>
<path d="M333.11 447.107C333.11 447.107 344.78 447.767 355.77 448.317C354.18 445.727 354.92 441.987 355.77 439.437L333.11 447.107Z" fill="white" stroke="#263238" stroke-width="1.10919" stroke-miterlimit="10"/>
<path d="M195 476.007H715.29" stroke="#263238" stroke-width="1.10919" stroke-miterlimit="10"/>
</svg>
